<svg xmlns="http://www.w3.org/2000/svg" width="99" height="99" viewBox="0 0 99 99"><path fill="#fff" d="M62.6 27.6H36.4a8.9 8.9 0 0 0-8.8 8.8v26.2a8.8 8.8 0 0 0 8.8 8.8h26.2a8.7 8.7 0 0 0 8.8-8.8V36.4a8.8 8.8 0 0 0-8.8-8.8zM49.5 65.5a16 16 0 1 1 16-16 16 16 0 0 1-16 16zm15.7-29a2.6 2.6 0 1 1 2.6-2.6 2.6 2.6 0 0 1-2.6 2.6z"/><path fill="#fff" d="M49.5 36.8a12.7 12.7 0 1 0 12.7 12.7 12.6 12.6 0 0 0-12.7-12.7z"/><path fill="#fff" d="M84.5 14.5a49.5 49.5 0 0 0-70 0 49.5 49.5 0 0 0 35 84.5A49.5 49.5 0 0 0 99 49.5a49.2 49.2 0 0 0-14.5-35zM74.4 62.6a11.8 11.8 0 0 1-11.8 11.8H36.4a11.8 11.8 0 0 1-11.7-11.8V36.4a11.8 11.8 0 0 1 11.7-11.7h26.2a11.8 11.8 0 0 1 11.8 11.7z"/></svg>