<svg xmlns="http://www.w3.org/2000/svg" width="99" height="99.1" viewBox="0 0 99 99.1"><path fill="#fff" d="M84.5 14.5a49.6 49.6 0 1 0 14.5 35 49.4 49.4 0 0 0-14.5-35zM69.6 39.4v1.3a33.4 33.4 0 0 1-.6 6.2 29 29 0 0 1-28.9 22.9 29.9 29.9 0 0 1-15.9-4.6h2.5A21.3 21.3 0 0 0 39.6 61a10.7 10.7 0 0 1-9.7-7.2 6.5 6.5 0 0 0 2 .2 12.4 12.4 0 0 0 2.7-.3 10.2 10.2 0 0 1-7.6-6.3 9.4 9.4 0 0 1-.7-3.7v-.2a9.5 9.5 0 0 0 4.7 1.3 10.1 10.1 0 0 1-4.7-8.5 9.8 9.8 0 0 1 1.5-5.1 29.2 29.2 0 0 0 21.4 10.6 8.5 8.5 0 0 1-.3-2.3 10.4 10.4 0 0 1 17.9-7 20.8 20.8 0 0 0 6.6-2.4 9.8 9.8 0 0 1-4.6 5.6 18.9 18.9 0 0 0 6-1.6 23.8 23.8 0 0 1-5.2 5.3z"/></svg>